<svg width="323" height="86" viewBox="0 0 323 86" fill="none" xmlns="http://www.w3.org/2000/svg">
<path d="M151.894 52.0847L154.629 46.7678H167.107L169.808 52.0847H175.727L164.646 31H157.173L146 52.0847H151.894ZM156.657 42.7905L160.822 34.9523H161.063L165.07 42.7905H156.657ZM172.901 31L184.132 52.0847H191.422L202.719 31H196.942L188.08 47.8911H187.473L178.728 31H172.901ZM204.565 52.0847H226.087V48.1074H209.603V43.2731H225.572V39.5953H209.603V34.9773H226.087V31H204.565V52.0847ZM229.828 31V52.0847H234.866V35.1936H235.564L248.225 52.0847H256.87V31H251.833V47.8911H251.143L238.299 31H229.828ZM259.88 31V35.1936H268.683V52.0847H273.721V35.1936H282.624V31H259.88ZM285.749 52.0847H290.787V31H285.749V52.0847ZM299.167 52.0847L301.902 46.7678H314.379L317.073 52.0847H323L311.919 31H304.445L293.273 52.0847H299.167ZM303.93 42.7905L308.095 34.9523H308.336L312.343 42.7905H303.93ZM164.039 64.9153H155.477C149.857 64.9153 147.671 66.6127 147.671 70.8646C147.671 76.2148 149.766 77.2216 155.502 77.2216H162.975C165.86 77.2216 166.192 78.0703 166.192 79.593C166.192 81.2905 165.344 82.0227 163.125 82.0227H154.687C153.257 82.0227 152.201 81.0492 152.201 80.0091H147.156C147.156 84.0862 148.768 86 154.138 86H164.314C169.285 86 171.23 84.0529 171.23 79.593C171.23 73.7269 168.985 73.236 164.338 73.236H155.144C153.748 73.236 152.709 72.9947 152.709 71.0809C152.709 69.4667 153.714 68.8926 155.144 68.8926H163.615C165.735 68.8926 166.192 69.5582 166.192 70.8646H171.23C171.23 66.7958 169.135 64.9153 164.039 64.9153ZM174.081 64.9153V69.1089H182.893V86H187.931V69.1089H196.826V64.9153H174.081ZM198.704 64.9153V78.4947C198.704 83.6036 201.198 86 206.51 86H215.771C221.208 86 223.294 84.0529 223.294 78.4947V64.9153H218.256V77.9788C218.256 80.8661 217.076 81.8063 214.582 81.8063H207.632C204.931 81.8063 203.75 80.9244 203.75 78.0121V64.9153H198.704ZM231.374 81.8063V69.1089H240.452C244.126 69.1089 245.033 70.3154 245.033 72.6868V78.2201C245.033 80.7413 244.218 81.8063 240.452 81.8063H231.374ZM226.337 64.9153V86H242.638C248.067 86 250.078 83.6619 250.078 78.1868V72.6036C250.078 67.0371 247.767 64.9153 242.605 64.9153H226.337ZM254.385 86H259.422V64.9153H254.385V86ZM268.409 78.2867V72.6619C268.409 69.6497 269.29 68.8593 272.449 68.8593H278.95C281.951 68.8593 282.99 69.5582 282.99 72.6286V78.2534C282.99 81.1074 282.258 81.8063 279.041 81.8063H272.357C269.29 81.8063 268.409 81.0492 268.409 78.2867ZM288.027 78.8026V72.1709C288.027 66.2466 285.625 64.6656 280.404 64.6656H271.144C265.408 64.6656 263.371 66.4047 263.371 72.1709V78.8026C263.371 83.9032 265.499 86 271.144 86H280.404C286.29 86 288.027 84.0529 288.027 78.8026Z" fill="white"/>
<path fill-rule="evenodd" clip-rule="evenodd" d="M68.5374 60.4941C64.0768 60.6777 61.3242 60.3939 57.4771 59.0166C58.6876 56.6044 70.5438 44.9105 73.2882 41.9891C77.7653 37.223 85.3433 32.4402 85.8905 22.2404C87.0264 0.847387 63.1647 -6.44776 49.9654 6.25616C44.2279 11.7734 39.1704 17.2239 33.5076 22.7829L5.06916 51.2875C-9.3656 67.4386 9.43027 95.2003 31.2938 82.9805C38.0013 79.2328 41.1768 74.5835 51.6236 70.9026C65.6189 65.9779 77.9312 67.472 89.9035 75.9858C93.3857 78.4732 95.2347 80.7602 98.8247 83.0139C107.605 88.5395 117.67 85.4344 123.723 80.4263C129.253 75.8439 132.113 65.2685 128.167 56.2121C125.132 49.2592 117.77 43.6417 107.862 44.2678C98.4847 44.8604 94.0324 52.1973 86.4461 55.1604C85.1858 55.9116 84.1163 56.3624 82.8146 56.9132C78.354 58.7746 73.4623 60.3021 68.5374 60.4941Z" fill="white"/>
</svg>
